<svg xmlns="http://www.w3.org/2000/svg" xmlns:xlink="http://www.w3.org/1999/xlink" width="336.273" height="55.111" viewBox="0 0 336.273 55.111">
  <defs>
    <clipPath id="clip-path">
      <rect id="Retângulo_23" data-name="Retângulo 23" width="336.273" height="55.111" fill="none"/>
    </clipPath>
  </defs>
  <g id="expalum-logo" transform="translate(0 0)">
    <g id="Grupo_51" data-name="Grupo 51" transform="translate(0 0)" clip-path="url(#clip-path)">
      <path id="Caminho_97" data-name="Caminho 97" d="M133.822,42.446H122.376c-1.771-.048-1.878-1.062-1.878-3.475l.019-8.52-.019-.017V.069H107.3v38.1h0c.029,9.131,5.871,16.44,18.132,16.44H141.64V54.6h5.38V.069h-13.2Z" transform="translate(114.916 0.075)" fill="#1a1818"/>
      <path id="Caminho_98" data-name="Caminho 98" d="M188.046,15.17c-.712-10.127-8.6-15.1-18.237-15.1H169.6V.06H128.818V.079h-.052V54.755h13.2V11.979H169.6v-.014h1.2c1.535,0,3.945.6,4.113,2.868l-.025,16.454h.025V54.6h13.2V15.17Z" transform="translate(137.907 0.065)" fill="#1a1818"/>
      <path id="Caminho_99" data-name="Caminho 99" d="M0,43.857l40.378-.13V31.587H13.466v-9.28H40.378l.048-12.113L0,10.28Z" transform="translate(0 10.918)" fill="#1a1818"/>
      <rect id="Retângulo_21" data-name="Retângulo 21" width="40.2" height="11.966" transform="translate(0.108 0.126)" fill="#1a1818"/>
      <path id="Caminho_100" data-name="Caminho 100" d="M42,10A25.392,25.392,0,0,0,21.982.007c-.139,0-.275.01-.412.012V13c.137,0,.271-.023.412-.023,7.594,0,13.751,6.526,13.751,14.578S29.576,42.131,21.982,42.131c-.141,0-.275-.014-.412-.021V55.093c.137,0,.273.01.412.01A25.388,25.388,0,0,0,42,45.109,25.392,25.392,0,0,0,62.029,55.1c.139,0,.273-.01.414-.01V42.11c-.141.006-.275.021-.414.021-7.594,0-13.751-6.524-13.751-14.576s6.157-14.578,13.751-14.578c.139,0,.273.019.414.023V.019c-.141,0-.275-.012-.414-.012A25.393,25.393,0,0,0,42,10" transform="translate(23.101 0.008)" fill="#2d943c"/>
      <path id="Caminho_101" data-name="Caminho 101" d="M64.556,0H43.126l-.141,11.9H65.548a4.823,4.823,0,0,1,5.041,4.569,4.82,4.82,0,0,1-5.041,4.564H56.237l-.052.048H43.039V54.819h13.2V33.192h8.319c10.111,0,18.308-7.431,18.308-16.595S74.667,0,64.556,0" transform="translate(46.036 0.001)" fill="#1a1818"/>
      <rect id="Retângulo_22" data-name="Retângulo 22" width="13.2" height="32.148" transform="translate(289.352 22.791)" fill="#1a1818"/>
      <path id="Caminho_102" data-name="Caminho 102" d="M79.538.146,95.576,42.614H78.733l7.6-21.435H72.282L60.361,54.754l7.166.052v.012h1.833l5.035.037.012-.037h30.34v-.041h9.475L93.569.049Z" transform="translate(64.646 0.053)" fill="#1a1818"/>
      <path id="Caminho_103" data-name="Caminho 103" d="M100.785.133H87.815V54.681h12.971v-.05H122.8V42.524H100.785Z" transform="translate(94.049 0.143)" fill="#1a1818"/>
      <path id="Caminho_104" data-name="Caminho 104" d="M166.428,4.164a3.92,3.92,0,1,1-3.92-3.918,3.934,3.934,0,0,1,3.92,3.918m-7.373,0A3.452,3.452,0,1,0,162.507.712a3.467,3.467,0,0,0-3.452,3.452m2.021-2.135h1.493c.311,0,1.431,0,1.431,1.058a1.006,1.006,0,0,1-.789,1.015c.435.1.582.29.644.81a5.919,5.919,0,0,0,.249,1.325h-.6a5.449,5.449,0,0,1-.207-1.1c-.062-.642-.228-.81-.913-.81h-.725V6.237h-.58Zm.58,1.8h.913c.29,0,.83,0,.83-.644,0-.663-.52-.663-.83-.663h-.913Z" transform="translate(169.845 0.264)" fill="#1a1818"/>
    </g>
  </g>
</svg>
