<svg id="icone-escolha" xmlns="http://www.w3.org/2000/svg" xmlns:xlink="http://www.w3.org/1999/xlink" width="48.925" height="78.103" viewBox="0 0 48.925 78.103">
  <defs>
    <clipPath id="clip-path">
      <rect id="Retângulo_26" data-name="Retângulo 26" width="48.925" height="78.103" fill="none"/>
    </clipPath>
  </defs>
  <g id="Grupo_55" data-name="Grupo 55" clip-path="url(#clip-path)">
    <path id="Caminho_121" data-name="Caminho 121" d="M28.374,47.362A1.478,1.478,0,0,1,26.9,45.883V35.744a1.479,1.479,0,1,1,2.958,0V45.883a1.478,1.478,0,0,1-1.479,1.479" transform="translate(-9.218 -11.745)" fill="#1d4a60"/>
    <path id="Caminho_122" data-name="Caminho 122" d="M41.042,48.764a1.478,1.478,0,0,1-1.479-1.479v-7.45a1.479,1.479,0,1,1,2.958,0v7.45a1.478,1.478,0,0,1-1.479,1.479" transform="translate(-13.561 -13.147)" fill="#1d4a60"/>
    <path id="Caminho_123" data-name="Caminho 123" d="M53.723,50.631a1.478,1.478,0,0,1-1.479-1.479V45.281a1.479,1.479,0,1,1,2.958,0v3.871a1.478,1.478,0,0,1-1.479,1.479" transform="translate(-17.907 -15.014)" fill="#1d4a60"/>
    <path id="Caminho_124" data-name="Caminho 124" d="M16.317,75.051A1.48,1.48,0,0,1,14.9,73.985L13.247,68.31.733,46.637a5.46,5.46,0,1,1,9.457-5.46l.455.787V18.438a4.994,4.994,0,0,1,9.987,0v7.488a5.472,5.472,0,0,1,2.551-.628h.268a5.518,5.518,0,0,1,5.19,3.661,5.526,5.526,0,0,1,2.919-.83h.172a5.567,5.567,0,0,1,5.5,4.743,4.851,4.851,0,0,1,6.805,4.441V57.438a25.892,25.892,0,0,1-2.528,11.124l-2.7,5.635a1.476,1.476,0,0,1-1.564.822c-.042-.006-.083-.015-.128-.017H16.783a.812.812,0,0,0-.163.018,1.45,1.45,0,0,1-.3.032m1.1-3.008H36.56l2.281-4.76a22.929,22.929,0,0,0,2.237-9.846V37.313a1.894,1.894,0,1,0-3.788,0,1.479,1.479,0,1,1-2.958,0V33.686a2.6,2.6,0,0,0-2.6-2.6h-.172a2.6,2.6,0,0,0-2.6,2.6,1.479,1.479,0,0,1-2.958,0V30.807a2.554,2.554,0,0,0-2.551-2.551h-.268a2.555,2.555,0,0,0-2.551,2.551,1.479,1.479,0,0,1-2.958,0V18.438a2.036,2.036,0,0,0-4.072,0V47.482a1.479,1.479,0,0,1-2.76.739L7.629,42.656a2.5,2.5,0,1,0-4.334,2.5L15.9,66.986a1.47,1.47,0,0,1,.139.326Z" transform="translate(0 -4.612)" fill="#1d4a60"/>
    <path id="Caminho_125" data-name="Caminho 125" d="M44.705,112.561H24.364a2.249,2.249,0,0,1-2.25-2.249V107.1a2.25,2.25,0,0,1,2.25-2.25H44.705a2.25,2.25,0,0,1,2.249,2.25v3.215a2.249,2.249,0,0,1-2.249,2.249" transform="translate(-7.58 -35.938)" fill="#3d84ac"/>
    <path id="Caminho_126" data-name="Caminho 126" d="M43.934,113.269H23.592a3.732,3.732,0,0,1-3.728-3.729v-3.215a3.732,3.732,0,0,1,3.728-3.728H43.934a3.732,3.732,0,0,1,3.728,3.728v3.215a3.732,3.732,0,0,1-3.728,3.729m-20.342-7.713a.771.771,0,0,0-.77.77v3.215a.772.772,0,0,0,.77.771H43.934a.772.772,0,0,0,.77-.771v-3.215a.771.771,0,0,0-.77-.77Z" transform="translate(-6.809 -35.166)" fill="#1d4a60"/>
    <path id="Caminho_127" data-name="Caminho 127" d="M25.461,17.2a1.479,1.479,0,0,1-1.214-2.322,7.365,7.365,0,1,0-12.105,0,1.479,1.479,0,1,1-2.43,1.686,10.322,10.322,0,1,1,16.965,0,1.478,1.478,0,0,1-1.217.636" transform="translate(-2.698 -0.124)" fill="#1d4a60"/>
    <path id="Caminho_128" data-name="Caminho 128" d="M62.966,11.094A8.844,8.844,0,1,1,54.122,2.25a8.844,8.844,0,0,1,8.844,8.844" transform="translate(-15.519 -0.771)" fill="#3d84ac"/>
    <path id="Caminho_129" data-name="Caminho 129" d="M53.351,20.644A10.323,10.323,0,1,1,63.674,10.322,10.334,10.334,0,0,1,53.351,20.644m0-17.688a7.365,7.365,0,1,0,7.366,7.365,7.373,7.373,0,0,0-7.366-7.365" transform="translate(-14.748 0)" fill="#1d4a60"/>
  </g>
</svg>
