<svg id="icone-relatorio" xmlns="http://www.w3.org/2000/svg" xmlns:xlink="http://www.w3.org/1999/xlink" width="67.621" height="76.35" viewBox="0 0 67.621 76.35">
  <defs>
    <clipPath id="clip-path">
      <rect id="Retângulo_28" data-name="Retângulo 28" width="67.621" height="76.35" fill="none"/>
    </clipPath>
  </defs>
  <g id="Grupo_59" data-name="Grupo 59" transform="translate(0 0)" clip-path="url(#clip-path)">
    <path id="Caminho_139" data-name="Caminho 139" d="M10.778,12.038H2.65a1.479,1.479,0,1,1,0-2.958H9.3v-7.2a1.479,1.479,0,1,1,2.958,0v8.682a1.479,1.479,0,0,1-1.479,1.479" transform="translate(-0.401 -0.136)" fill="#1d4a60"/>
    <path id="Caminho_140" data-name="Caminho 140" d="M77.842,85.995A12.258,12.258,0,1,1,90.1,73.737,12.272,12.272,0,0,1,77.842,85.995m0-21.558a9.3,9.3,0,1,0,9.3,9.3,9.31,9.31,0,0,0-9.3-9.3" transform="translate(-22.479 -21.072)" fill="#3d84ac"/>
    <path id="Caminho_141" data-name="Caminho 141" d="M80.091,81.682h-.03a1.483,1.483,0,0,1-1.042-.46l-1.877-1.975a1.479,1.479,0,0,1,2.143-2.038l.849.893,3.951-3.831a1.479,1.479,0,0,1,2.059,2.124l-5.024,4.87a1.477,1.477,0,0,1-1.029.417" transform="translate(-26.301 -25.314)" fill="#1d4a60"/>
    <path id="Caminho_142" data-name="Caminho 142" d="M48.677,30.261H13.423a1.479,1.479,0,0,1,0-2.958H48.677a1.479,1.479,0,0,1,0,2.958" transform="translate(-4.094 -9.358)" fill="#1d4a60"/>
    <path id="Caminho_143" data-name="Caminho 143" d="M48.677,41.577H13.423a1.479,1.479,0,1,1,0-2.958H48.677a1.479,1.479,0,0,1,0,2.958" transform="translate(-4.094 -13.237)" fill="#1d4a60"/>
    <path id="Caminho_144" data-name="Caminho 144" d="M48.677,52.892H13.423a1.479,1.479,0,1,1,0-2.958H48.677a1.479,1.479,0,0,1,0,2.958" transform="translate(-4.094 -17.115)" fill="#1d4a60"/>
    <path id="Caminho_145" data-name="Caminho 145" d="M14.9,70.121H13.423a1.479,1.479,0,1,1,0-2.958H14.9a1.479,1.479,0,0,1,0,2.958" transform="translate(-4.094 -23.021)" fill="#3d84ac"/>
    <path id="Caminho_146" data-name="Caminho 146" d="M14.9,81.335H13.423a1.479,1.479,0,1,1,0-2.958H14.9a1.479,1.479,0,0,1,0,2.958" transform="translate(-4.094 -26.864)" fill="#3d84ac"/>
    <path id="Caminho_147" data-name="Caminho 147" d="M14.9,92.548H13.423a1.479,1.479,0,1,1,0-2.958H14.9a1.479,1.479,0,0,1,0,2.958" transform="translate(-4.094 -30.708)" fill="#3d84ac"/>
    <path id="Caminho_148" data-name="Caminho 148" d="M38.108,70.121H24.674a1.479,1.479,0,0,1,0-2.958H38.108a1.479,1.479,0,0,1,0,2.958" transform="translate(-7.95 -23.021)" fill="#1d4a60"/>
    <path id="Caminho_149" data-name="Caminho 149" d="M38.108,81.335H24.674a1.479,1.479,0,0,1,0-2.958H38.108a1.479,1.479,0,0,1,0,2.958" transform="translate(-7.95 -26.864)" fill="#1d4a60"/>
    <path id="Caminho_150" data-name="Caminho 150" d="M38.108,92.548H24.674a1.479,1.479,0,0,1,0-2.958H38.108a1.479,1.479,0,0,1,0,2.958" transform="translate(-7.95 -30.708)" fill="#1d4a60"/>
    <path id="Caminho_151" data-name="Caminho 151" d="M49.933,76.35H4.124A4.128,4.128,0,0,1,0,72.226V10.359A1.48,1.48,0,0,1,.434,9.314L9.314.433A1.478,1.478,0,0,1,10.359,0H49.933a4.127,4.127,0,0,1,4.123,4.123V36.391a1.479,1.479,0,1,1-2.958,0V4.123a1.166,1.166,0,0,0-1.165-1.165H10.972L2.958,10.972V72.226a1.167,1.167,0,0,0,1.166,1.166h45.81A1.167,1.167,0,0,0,51.1,72.226V68.938a1.479,1.479,0,0,1,2.958,0v3.288a4.128,4.128,0,0,1-4.123,4.124" transform="translate(0 0)" fill="#1d4a60"/>
  </g>
</svg>
