<svg id="icone-projeto" xmlns="http://www.w3.org/2000/svg" xmlns:xlink="http://www.w3.org/1999/xlink" width="65.269" height="80.727" viewBox="0 0 65.269 80.727">
  <defs>
    <clipPath id="clip-path">
      <rect id="Retângulo_27" data-name="Retângulo 27" width="65.269" height="80.727" fill="none"/>
    </clipPath>
  </defs>
  <g id="Grupo_57" data-name="Grupo 57" transform="translate(0 0)" clip-path="url(#clip-path)">
    <path id="Caminho_130" data-name="Caminho 130" d="M22.956,28.79H16.565a2.338,2.338,0,0,1-2.336-2.336V21.026a2.338,2.338,0,0,1,2.336-2.336h6.391a2.339,2.339,0,0,1,2.336,2.336v5.428a2.339,2.339,0,0,1-2.336,2.336m-5.769-2.958h5.148V21.647H17.187Z" transform="translate(-4.877 -6.406)" fill="#1d4a60"/>
    <path id="Caminho_131" data-name="Caminho 131" d="M51.364,27.082h-12.9a1.479,1.479,0,1,1,0-2.958h12.9a1.479,1.479,0,0,1,0,2.958" transform="translate(-12.678 -8.269)" fill="#1d4a60"/>
    <path id="Caminho_132" data-name="Caminho 132" d="M51.364,51.625h-12.9a1.479,1.479,0,1,1,0-2.958h12.9a1.479,1.479,0,0,1,0,2.958" transform="translate(-12.678 -16.681)" fill="#1d4a60"/>
    <path id="Caminho_133" data-name="Caminho 133" d="M22.956,77.877H16.565a2.338,2.338,0,0,1-2.336-2.336V70.113a2.338,2.338,0,0,1,2.336-2.336h6.391a2.339,2.339,0,0,1,2.336,2.336v5.429a2.339,2.339,0,0,1-2.336,2.336M17.187,74.92h5.148V70.735H17.187Z" transform="translate(-4.877 -23.231)" fill="#1d4a60"/>
    <path id="Caminho_134" data-name="Caminho 134" d="M37.418,76.169H35.407a1.479,1.479,0,1,1,0-2.958h2.011a1.479,1.479,0,1,1,0,2.958" transform="translate(-11.629 -25.094)" fill="#1d4a60"/>
    <path id="Caminho_135" data-name="Caminho 135" d="M18.892,76.35h-13A5.9,5.9,0,0,1,0,70.461V5.889A5.9,5.9,0,0,1,5.89,0H48.048a5.9,5.9,0,0,1,5.889,5.889V35.66a1.479,1.479,0,1,1-2.958,0V5.889a2.935,2.935,0,0,0-2.931-2.931H5.89A2.935,2.935,0,0,0,2.958,5.889V70.461A2.935,2.935,0,0,0,5.89,73.392h13a1.479,1.479,0,0,1,0,2.958" transform="translate(0 0)" fill="#1d4a60"/>
    <path id="Caminho_136" data-name="Caminho 136" d="M78.823,82.912h-2.51a.7.7,0,0,1-.674-.5,13.33,13.33,0,0,0-1.075-2.588A.7.7,0,0,1,74.689,79l1.777-1.777a.708.708,0,0,0,0-1l-3.715-3.715a.708.708,0,0,0-1,0l-1.777,1.777a.7.7,0,0,1-.828.126,13.394,13.394,0,0,0-2.588-1.075.7.7,0,0,1-.5-.674v-2.51a.708.708,0,0,0-.708-.707H60.1a.708.708,0,0,0-.708.707v2.51a.7.7,0,0,1-.5.674,13.388,13.388,0,0,0-2.588,1.075.7.7,0,0,1-.828-.126L53.7,72.508a.708.708,0,0,0-1,0l-3.715,3.715a.71.71,0,0,0,0,1L50.765,79a.7.7,0,0,1,.126.829,13.41,13.41,0,0,0-1.074,2.588.7.7,0,0,1-.675.5h-2.51a.708.708,0,0,0-.707.708v5.254a.708.708,0,0,0,.707.708h2.51a.7.7,0,0,1,.675.5,13.41,13.41,0,0,0,1.074,2.588.7.7,0,0,1-.126.829L48.987,95.27a.71.71,0,0,0,0,1L52.7,99.987a.709.709,0,0,0,1,0l1.777-1.777a.7.7,0,0,1,.828-.126A13.427,13.427,0,0,0,58.9,99.159a.7.7,0,0,1,.5.675v2.509a.708.708,0,0,0,.708.708h5.254a.708.708,0,0,0,.708-.708V99.834a.7.7,0,0,1,.5-.675,13.433,13.433,0,0,0,2.588-1.074.7.7,0,0,1,.828.126l1.777,1.777a.709.709,0,0,0,1,0l3.715-3.715a.708.708,0,0,0,0-1l-1.777-1.777a.7.7,0,0,1-.126-.829,13.33,13.33,0,0,0,1.075-2.588.7.7,0,0,1,.674-.5h2.51a.707.707,0,0,0,.707-.708V83.62a.707.707,0,0,0-.707-.708M62.728,93.3a7.055,7.055,0,1,1,7.055-7.055A7.055,7.055,0,0,1,62.728,93.3" transform="translate(-15.741 -23.803)" fill="#3d84ac"/>
    <path id="Caminho_137" data-name="Caminho 137" d="M64.583,103.758H59.329a2.188,2.188,0,0,1-2.186-2.186V99.626a14.913,14.913,0,0,1-1.788-.742l-1.377,1.377a2.188,2.188,0,0,1-3.092,0l-3.715-3.715a2.189,2.189,0,0,1,0-3.092l1.377-1.378a14.986,14.986,0,0,1-.742-1.786H45.861A2.189,2.189,0,0,1,43.674,88.1V82.849a2.189,2.189,0,0,1,2.187-2.187h1.945a14.951,14.951,0,0,1,.742-1.787L47.171,77.5a2.189,2.189,0,0,1,0-3.092l3.715-3.715a2.187,2.187,0,0,1,3.092,0l1.378,1.377a14.922,14.922,0,0,1,1.787-.742V69.381a2.189,2.189,0,0,1,2.186-2.187h5.254a2.189,2.189,0,0,1,2.187,2.187v1.946a14.9,14.9,0,0,1,1.787.742l1.378-1.378a2.239,2.239,0,0,1,3.092,0l3.714,3.715a2.186,2.186,0,0,1,0,3.092l-1.377,1.377a14.739,14.739,0,0,1,.742,1.787h1.946a2.189,2.189,0,0,1,2.186,2.187V88.1a2.189,2.189,0,0,1-2.186,2.187H76.106a14.685,14.685,0,0,1-.742,1.786l1.377,1.378a2.186,2.186,0,0,1,0,3.093l-3.714,3.714a2.24,2.24,0,0,1-3.092,0l-1.377-1.376a14.86,14.86,0,0,1-1.787.742v1.946a2.189,2.189,0,0,1-2.187,2.186M60.1,100.8h3.711V99.062a2.192,2.192,0,0,1,1.554-2.093,11.89,11.89,0,0,0,2.3-.955,2.191,2.191,0,0,1,2.582.379l1.232,1.231L74.1,95l-1.231-1.231a2.189,2.189,0,0,1-.379-2.582,11.87,11.87,0,0,0,.954-2.3,2.192,2.192,0,0,1,2.093-1.554H77.28V83.62H75.542a2.192,2.192,0,0,1-2.093-1.554,11.814,11.814,0,0,0-.955-2.3,2.19,2.19,0,0,1,.38-2.582l1.23-1.23-2.625-2.625-1.231,1.231a2.189,2.189,0,0,1-2.581.379,11.956,11.956,0,0,0-2.3-.956,2.192,2.192,0,0,1-1.554-2.093V70.152H60.1V71.89a2.192,2.192,0,0,1-1.554,2.093,11.934,11.934,0,0,0-2.3.956,2.191,2.191,0,0,1-2.582-.38l-1.23-1.23-2.625,2.624,1.232,1.231a2.193,2.193,0,0,1,.379,2.582,11.917,11.917,0,0,0-.955,2.3A2.192,2.192,0,0,1,48.37,83.62H46.632v3.712H48.37a2.191,2.191,0,0,1,2.093,1.554,11.9,11.9,0,0,0,.956,2.3,2.193,2.193,0,0,1-.379,2.581L49.807,95l2.625,2.624,1.231-1.231a2.191,2.191,0,0,1,2.581-.379,11.913,11.913,0,0,0,2.3.955A2.192,2.192,0,0,1,60.1,99.062Zm14.863-9.125v0m3.088-8.055h0Zm-16.1,10.39a8.534,8.534,0,1,1,8.534-8.534,8.544,8.544,0,0,1-8.534,8.534m0-14.111a5.577,5.577,0,1,0,5.577,5.577A5.582,5.582,0,0,0,61.956,79.9" transform="translate(-14.97 -23.031)" fill="#1d4a60"/>
    <path id="Caminho_138" data-name="Caminho 138" d="M18.739,53.107a1.476,1.476,0,0,1-1.016-.4l-3.045-2.881a1.479,1.479,0,0,1,2.033-2.149l1.986,1.88,5.073-5.209a1.479,1.479,0,0,1,2.119,2.063L19.8,52.66a1.475,1.475,0,0,1-1.059.447" transform="translate(-4.872 -15.046)" fill="#3d84ac"/>
  </g>
</svg>
