<svg xmlns="http://www.w3.org/2000/svg" xmlns:xlink="http://www.w3.org/1999/xlink" width="331.451" height="84.404" viewBox="0 0 331.451 84.404">
  <defs>
    <clipPath id="clip-path">
      <rect id="Retângulo_18" data-name="Retângulo 18" width="230" height="42.905" fill="none"/>
    </clipPath>
  </defs>
  <g id="logo-esquadgroup" transform="translate(-793.871 1)">
    <path id="Subtração_1" data-name="Subtração 1" d="M402.043,236.9H149.15A26.933,26.933,0,0,1,122.716,215.2L110.48,153.5H440.713l-12.236,61.7A26.935,26.935,0,0,1,402.043,236.9Z" transform="translate(684 -154)" fill="#fff" stroke="rgba(0,0,0,0)" stroke-miterlimit="10" stroke-width="1"/>
    <g id="logo-esquadgroup-2" data-name="logo-esquadgroup" transform="translate(845 19.999)">
      <path id="Caminho_16" data-name="Caminho 16" d="M89.243,40.914V8.584H99.991V12.5H93.577v9.816h5.7v3.917H93.592V37h6.415v3.917Z" transform="translate(-33.263 -3.199)" fill="#004270"/>
      <g id="Grupo_31" data-name="Grupo 31" transform="translate(0 0.001)">
        <g id="Grupo_30" data-name="Grupo 30" clip-path="url(#clip-path)">
          <path id="Caminho_17" data-name="Caminho 17" d="M118.7,17.27V14.436a1.7,1.7,0,0,0-1.9-1.936h-.684c-1.243,0-1.848.65-1.848,1.936v5.357a1.646,1.646,0,0,0,.357,1.224,7.81,7.81,0,0,0,1.181.8l4.116,2.214c.9.511,1.538.913,1.926,1.192a3.157,3.157,0,0,1,.885,1.037,5.592,5.592,0,0,1,.311,2.323v6.891q0,5.457-5.234,5.45h-2.672q-5.2,0-5.188-5.945V33.357h4.334v1.749A1.7,1.7,0,0,0,116.226,37h.761c1.15,0,1.724-.635,1.724-1.889v-5.5a1.642,1.642,0,0,0-.358-1.223,8.652,8.652,0,0,0-1.181-.8l-4.131-2.292a12.925,12.925,0,0,1-1.973-1.223,2.819,2.819,0,0,1-.886-1.285,6.288,6.288,0,0,1-.264-2.044V14.126c0-3.685,1.724-5.543,5.188-5.543h2.7q5.2,0,5.188,5.543v3.159h-4.3Z" transform="translate(-40.969 -3.199)" fill="#004270"/>
          <path id="Caminho_18" data-name="Caminho 18" d="M151.656,40.914H139.867q-5.243,0-5.235-5.45V14.127c0-3.685,1.724-5.543,5.188-5.543h4.163q5.2,0,5.188,5.543V37h2.485ZM144.822,37V14.39A1.7,1.7,0,0,0,142.88,12.5h-2.035a1.676,1.676,0,0,0-1.9,1.889V35.108A1.7,1.7,0,0,0,140.892,37Z" transform="translate(-50.18 -3.2)" fill="#004270"/>
          <path id="Caminho_19" data-name="Caminho 19" d="M179.153,8.583V34.8q0,6.132-5.235,6.132h-3.666q-5.2,0-5.188-6.162V8.6H169.4V34.89c0,1.41.637,2.121,1.9,2.121h1.755c1.181,0,1.756-.712,1.756-2.121V8.583Z" transform="translate(-61.523 -3.199)" fill="#004270"/>
          <path id="Caminho_20" data-name="Caminho 20" d="M195.448,40.913h-4.334V14.126c0-3.685,1.724-5.543,5.188-5.543h3.246q5.2,0,5.188,5.543V40.913H200.4V29.068h-4.971V40.913Zm4.971-15.762V14.389a1.676,1.676,0,0,0-1.9-1.889h-1.181a1.676,1.676,0,0,0-1.9,1.889V25.151Z" transform="translate(-71.232 -3.199)" fill="#004270"/>
          <path id="Caminho_21" data-name="Caminho 21" d="M216.223,40.914V8.584h7.549q6.1,0,6.1,6.209v21.43c0,3.128-1.739,4.676-5.188,4.676h-8.466ZM220.557,37H223.8q1.725,0,1.724-1.44V14.839c0-1.564-.652-2.338-1.941-2.338h-3.029Z" transform="translate(-80.59 -3.2)" fill="#004270"/>
          <path id="Caminho_22" data-name="Caminho 22" d="M248.492,29.068V25.151h6.6V40.913h-8.5q-5.009,0-5.017-5.45V14.126c0-3.685,1.677-5.543,5.017-5.543h2.982q5.522,0,5.514,5.636v3.515H250.76v-2.9c0-1.564-.621-2.338-1.848-2.338h-1.088c-1.258,0-1.9.774-1.9,2.338v19.82c0,1.564.637,2.338,1.9,2.338h2.936V29.068Z" transform="translate(-90.042 -3.199)" fill="#1c6698"/>
          <path id="Caminho_23" data-name="Caminho 23" d="M266.639,8.583h8.5q4.963,0,4.971,5.543V22.1c0,2.818-.854,4.614-2.578,5.358l3.029,13.471H276.44L273.6,27.876h-2.625V40.929h-4.334Zm4.334,15.577h2.843c1.289,0,1.941-.774,1.941-2.338V14.839c0-1.564-.652-2.339-1.941-2.339h-2.843Z" transform="translate(-99.381 -3.199)" fill="#1c6698"/>
          <path id="Caminho_24" data-name="Caminho 24" d="M297.775,40.914q-5.243,0-5.235-5.5V14.127c0-3.685,1.724-5.543,5.188-5.543h4.163q5.2,0,5.188,5.543V35.417q0,5.5-5.234,5.5ZM298.815,37h2.206c1.15,0,1.724-.635,1.724-1.889V14.39A1.7,1.7,0,0,0,300.8,12.5h-2.035a1.676,1.676,0,0,0-1.895,1.889V35.108A1.7,1.7,0,0,0,298.815,37" transform="translate(-109.035 -3.2)" fill="#1c6698"/>
          <path id="Caminho_25" data-name="Caminho 25" d="M333.323,8.583V34.8q0,6.132-5.235,6.132h-3.666q-5.2,0-5.188-6.162V8.6h4.333V34.89c0,1.41.638,2.121,1.9,2.121h1.755c1.181,0,1.756-.712,1.756-2.121V8.583Z" transform="translate(-118.985 -3.199)" fill="#1c6698"/>
          <path id="Caminho_26" data-name="Caminho 26" d="M345.681,8.583h7.906q5.242,0,5.234,5.543v9.585c0,3.669-1.739,5.5-5.188,5.5h-3.6V40.913h-4.349ZM350.03,25.29h2.749c1.149,0,1.724-.634,1.724-1.888V14.39a1.7,1.7,0,0,0-1.942-1.889H350.03Z" transform="translate(-128.842 -3.199)" fill="#1c6698"/>
          <path id="Caminho_27" data-name="Caminho 27" d="M37.589,27.015h4.784l8.387-8.346-2.392-2.384Z" transform="translate(-14.01 -6.07)" fill="#1c6698"/>
          <path id="Caminho_28" data-name="Caminho 28" d="M58.7,39.437a6.624,6.624,0,0,0,1.879-3.825H47.345l7.6,7.572Z" transform="translate(-17.646 -13.274)" fill="#1c6698"/>
          <path id="Caminho_29" data-name="Caminho 29" d="M60.585,28.818a6.468,6.468,0,0,0-1.9-4.057l-3.65-3.639-7.72,7.7Z" transform="translate(-17.637 -7.873)" fill="#dad60b"/>
          <path id="Caminho_30" data-name="Caminho 30" d="M29.916,23.832l11.417-11.4L36.626,7.744,20.5,23.832Z" transform="translate(-7.642 -2.887)" fill="#004270"/>
          <path id="Caminho_31" data-name="Caminho 31" d="M11.651,35.612H.3a6.444,6.444,0,0,0,1.879,3.825l14.85,14.8a6.6,6.6,0,0,0,9.3,0l2-2Z" transform="translate(-0.111 -13.274)" fill="#004270"/>
          <path id="Caminho_32" data-name="Caminho 32" d="M11.633,21.047,28.424,4.308,26.3,2.187a6.606,6.606,0,0,0-9.3,0L2.142,16.99a6.471,6.471,0,0,0-1.9,4.057Z" transform="translate(-0.092 -0.102)" fill="#004270"/>
          <path id="Caminho_33" data-name="Caminho 33" d="M36.517,51.576l4.706-4.691L29.916,35.613H20.5Z" transform="translate(-7.642 -13.274)" fill="#004270"/>
          <path id="Caminho_34" data-name="Caminho 34" d="M42.373,35.612H37.589L48.244,46.219l2.392-2.369Z" transform="translate(-14.01 -13.274)" fill="#1c6698"/>
        </g>
      </g>
    </g>
  </g>
</svg>
