<svg xmlns="http://www.w3.org/2000/svg" xmlns:xlink="http://www.w3.org/1999/xlink" width="186.421" height="85.104" viewBox="0 0 186.421 85.104">
  <defs>
    <clipPath id="clip-path">
      <rect id="Retângulo_3" data-name="Retângulo 3" width="186.421" height="85.104" fill="none"/>
    </clipPath>
  </defs>
  <g id="logo-cem" transform="translate(0 0)">
    <g id="Grupo_1" data-name="Grupo 1" transform="translate(0 0)" clip-path="url(#clip-path)">
      <path id="Caminho_1" data-name="Caminho 1" d="M60.578,13.745H17.721a4.412,4.412,0,0,0-4.313,4.5V54.517a4.412,4.412,0,0,0,4.313,4.505h14.2v5.366H28.5v2.364H49.8V64.388H46.378V59.022h14.2a4.412,4.412,0,0,0,4.313-4.505V18.249a4.412,4.412,0,0,0-4.313-4.5m-.521,37.367a3.585,3.585,0,0,1-3.505,3.659H21.746a3.584,3.584,0,0,1-3.5-3.659V21.656A3.582,3.582,0,0,1,21.746,18H56.552a3.584,3.584,0,0,1,3.505,3.658Z" transform="translate(2.865 2.936)" fill="#fff"/>
      <path id="Caminho_2" data-name="Caminho 2" d="M22.305,49.555H52.74v-29.2H22.305Zm16.31-27.012H50.553v9.536H38.615Zm0,11.723H50.553v13.1H38.615ZM24.492,22.543H36.429v9.536H24.492Zm0,11.723H36.429v13.1H24.492Z" transform="translate(4.765 4.349)" fill="#fff"/>
      <path id="Caminho_3" data-name="Caminho 3" d="M65.86,0H18.167A18.446,18.446,0,0,0,0,18.674V66.43A18.446,18.446,0,0,0,18.167,85.1H65.86A18.447,18.447,0,0,0,84.028,66.43V18.674A18.447,18.447,0,0,0,65.86,0M79.649,64.227c0,9.372-7.3,17-16.275,17H20.653c-8.974,0-16.274-7.625-16.274-17V20.877c0-9.372,7.3-17,16.274-17H63.374c8.974,0,16.275,7.625,16.275,17Z" transform="translate(0 0)" fill="#fff"/>
      <path id="Caminho_4" data-name="Caminho 4" d="M103.172,41.756H108.6v.981q0,5.946-2.169,7.687t-9.6,1.742q-8.429,0-10.368-2.754T84.522,34.684q0-7.051,2.629-9.273T98.145,23.19q6.089,0,8.135,1.825t2.045,7.249l.021.647h-5.424v-.731q0-2.794-1.053-3.578t-4.808-.782q-5.028,0-6.039,1.231t-1.012,7.3q0,8.178.908,9.68t5.872,1.5q4.027,0,5.227-.834t1.2-3.672Z" transform="translate(18.058 4.954)" fill="#fff"/>
      <path id="Caminho_5" data-name="Caminho 5" d="M112.1,27.944v7.344H125.45v3.984H112.1v8.053H126.3v4.548H106.7V23.4h19.484v4.548Z" transform="translate(22.795 4.998)" fill="#fff"/>
      <path id="Caminho_6" data-name="Caminho 6" d="M159.465,23.4V51.873h-5.4V36.353q0-1.859.1-4.215l.1-2.128.1-2.107h-.166l-.647,1.982-.626,1.981q-.876,2.672-1.356,3.944l-6.259,16.063H140.4l-6.322-15.938q-.521-1.316-1.376-3.943l-.647-1.982-.647-1.961h-.166l.1,2.066.1,2.086q.124,2.419.125,4.152v15.52h-5.4V23.4h8.8l5.09,13.184q.521,1.376,1.376,3.943l.626,1.982.647,1.961h.187l.606-1.961.625-1.961q.772-2.483,1.335-3.921L150.474,23.4Z" transform="translate(26.956 4.998)" fill="#fff"/>
    </g>
  </g>
</svg>
